<mxfile host="app.diagrams.net" modified="2021-02-07T11:46:51.395Z" agent="5.0 (Macintosh; Intel Mac OS X 10_15_7) AppleWebKit/537.36 (KHTML, like Gecko) Chrome/88.0.4324.96 Safari/537.36" etag="XjXz53vcg1hqf_twv02n" version="14.2.9" type="github" pages="2">
  <diagram id="C5RBs43oDa-KdzZeNtuy" name="Weex加载">
    <mxGraphModel dx="3048" dy="3082" grid="1" gridSize="10" guides="1" tooltips="1" connect="1" arrows="1" fold="1" page="1" pageScale="1" pageWidth="827" pageHeight="1169" math="0" shadow="0">
      <root>
        <mxCell id="WIyWlLk6GJQsqaUBKTNV-0" />
        <mxCell id="WIyWlLk6GJQsqaUBKTNV-1" parent="WIyWlLk6GJQsqaUBKTNV-0" />
        <mxCell id="Zo8zre_AHFBqHG1fS06w-28" value="QLWeexAndH5Bridge" style="swimlane;fontStyle=1;align=center;verticalAlign=top;childLayout=stackLayout;horizontal=1;startSize=26;horizontalStack=0;resizeParent=1;resizeParentMax=0;resizeLast=0;collapsible=1;marginBottom=0;rounded=1;sketch=0;strokeColor=#006658;fillColor=#21C0A5;fontColor=#5C5C5C;swimlaneLine=0;" vertex="1" parent="WIyWlLk6GJQsqaUBKTNV-1">
          <mxGeometry x="360" y="280" width="540" height="50" as="geometry" />
        </mxCell>
        <mxCell id="Zo8zre_AHFBqHG1fS06w-31" value="+ (void)handleJSMessageData:(NSDictionary*)dict from:(UIViewController&lt;QLHybridContainerProtocol&gt;*)vc callback:(VXModuleKeepAliveCallback)callback" style="text;strokeColor=none;fillColor=none;align=left;verticalAlign=top;spacingLeft=4;spacingRight=4;overflow=hidden;rotatable=0;points=[[0,0.5],[1,0.5]];portConstraint=eastwest;fontSize=10;" vertex="1" parent="Zo8zre_AHFBqHG1fS06w-28">
          <mxGeometry y="26" width="540" height="24" as="geometry" />
        </mxCell>
        <mxCell id="Zo8zre_AHFBqHG1fS06w-32" value="WKWebViewJavascriptBridge" style="swimlane;fontStyle=1;align=center;verticalAlign=top;childLayout=stackLayout;horizontal=1;startSize=26;horizontalStack=0;resizeParent=1;resizeParentMax=0;resizeLast=0;collapsible=1;marginBottom=0;rounded=1;sketch=0;strokeColor=#006658;fillColor=#21C0A5;fontColor=#5C5C5C;swimlaneLine=0;" vertex="1" parent="WIyWlLk6GJQsqaUBKTNV-1">
          <mxGeometry x="720" y="50" width="290" height="170" as="geometry" />
        </mxCell>
        <mxCell id="Zo8zre_AHFBqHG1fS06w-33" value="+ (instancetype)bridgeForWebView:(WKWebView*)webView&#xa;+ (void)enableLogging&#xa;+ (void)registerDefaultHander:(WVJBHandler)handler&#xa;+ (void)registerHandler:(NSString*)handlerName handler:(WVJBHandler)handler&#xa;+ (void)removeHandler:(NSString*)handlerName&#xa;+ (void)callHandler:(NSString*)handlerName&#xa;+ (void)callHandler:(NSString*)handlerName data:(id)data&#xa;+ (void)callHandler:(NSString*)handlerName data:(id)data responseCallback:(WVJBResponseCallback)responseCallback&#xa;+ (void)reset&#xa;+ (void)setWebViewDelegate:(id)webViewDelegate&#xa;+ (void)disableJavscriptAlertBoxSafetyTimeout" style="text;strokeColor=none;fillColor=none;align=left;verticalAlign=top;spacingLeft=4;spacingRight=4;overflow=hidden;rotatable=0;points=[[0,0.5],[1,0.5]];portConstraint=eastwest;fontSize=10;" vertex="1" parent="Zo8zre_AHFBqHG1fS06w-32">
          <mxGeometry y="26" width="290" height="144" as="geometry" />
        </mxCell>
        <mxCell id="Zo8zre_AHFBqHG1fS06w-92" style="edgeStyle=orthogonalEdgeStyle;curved=0;rounded=1;sketch=0;orthogonalLoop=1;jettySize=auto;html=1;entryX=0;entryY=0.5;entryDx=0;entryDy=0;startArrow=none;startFill=0;endArrow=open;endFill=0;strokeColor=#006658;fillColor=#21C0A5;fontSize=10;fontColor=#FF9575;dashed=1;" edge="1" parent="WIyWlLk6GJQsqaUBKTNV-1" source="Zo8zre_AHFBqHG1fS06w-35" target="Zo8zre_AHFBqHG1fS06w-33">
          <mxGeometry relative="1" as="geometry" />
        </mxCell>
        <mxCell id="Zo8zre_AHFBqHG1fS06w-35" value="QLBWebViewController" style="swimlane;fontStyle=1;align=center;verticalAlign=top;childLayout=stackLayout;horizontal=1;startSize=26;horizontalStack=0;resizeParent=1;resizeParentMax=0;resizeLast=0;collapsible=1;marginBottom=0;rounded=1;sketch=0;strokeColor=#006658;fillColor=#21C0A5;fontColor=#5C5C5C;swimlaneLine=0;" vertex="1" parent="WIyWlLk6GJQsqaUBKTNV-1">
          <mxGeometry x="360" y="-20" width="260" height="180" as="geometry">
            <mxRectangle x="360" y="-20" width="170" height="26" as="alternateBounds" />
          </mxGeometry>
        </mxCell>
        <mxCell id="Zo8zre_AHFBqHG1fS06w-36" value="+ WKWebView* _web&#xa;+ UIBarButtonItem* _closeBtn&#xa;+ UIBarButtonItem* _backBtn&#xa;+ WKWebViewJavascriptBridge *nativeBridge&#xa;+ WKWebView* web&#xa;+ IBOutlet UIProgressView *progressBar&#xa;+ NSString* accountType&#xa;+ NSString* htmlStr&#xa;&#xa;+ (BOOL)needCookie&#xa;+ (void)navigateToURL&#xa;+ (void)loadHTMLString" style="text;strokeColor=none;fillColor=none;align=left;verticalAlign=top;spacingLeft=4;spacingRight=4;overflow=hidden;rotatable=0;points=[[0,0.5],[1,0.5]];portConstraint=eastwest;fontSize=10;" vertex="1" parent="Zo8zre_AHFBqHG1fS06w-35">
          <mxGeometry y="26" width="260" height="154" as="geometry" />
        </mxCell>
        <mxCell id="Zo8zre_AHFBqHG1fS06w-103" value="" style="endArrow=none;html=1;strokeColor=#006658;fillColor=#21C0A5;fontSize=10;fontColor=#FF9575;exitX=0.004;exitY=0.717;exitDx=0;exitDy=0;exitPerimeter=0;entryX=1;entryY=0.717;entryDx=0;entryDy=0;entryPerimeter=0;" edge="1" parent="Zo8zre_AHFBqHG1fS06w-35" source="Zo8zre_AHFBqHG1fS06w-36" target="Zo8zre_AHFBqHG1fS06w-36">
          <mxGeometry width="50" height="50" relative="1" as="geometry">
            <mxPoint x="10" y="170" as="sourcePoint" />
            <mxPoint x="60" y="120" as="targetPoint" />
          </mxGeometry>
        </mxCell>
        <mxCell id="Zo8zre_AHFBqHG1fS06w-83" style="edgeStyle=orthogonalEdgeStyle;curved=0;rounded=1;sketch=0;orthogonalLoop=1;jettySize=auto;html=1;entryX=1;entryY=0.5;entryDx=0;entryDy=0;startArrow=block;startFill=0;endArrow=none;endFill=0;strokeColor=#006658;fillColor=#21C0A5;fontSize=10;fontColor=#FF9575;dashed=1;" edge="1" parent="WIyWlLk6GJQsqaUBKTNV-1" source="Zo8zre_AHFBqHG1fS06w-43" target="Zo8zre_AHFBqHG1fS06w-52">
          <mxGeometry relative="1" as="geometry">
            <Array as="points">
              <mxPoint x="878" y="-242" />
            </Array>
          </mxGeometry>
        </mxCell>
        <mxCell id="Zo8zre_AHFBqHG1fS06w-43" value="QLHybridContainerProtocol" style="swimlane;fontStyle=1;align=center;verticalAlign=top;childLayout=stackLayout;horizontal=1;startSize=26;horizontalStack=0;resizeParent=1;resizeParentMax=0;resizeLast=0;collapsible=1;marginBottom=0;rounded=1;sketch=0;strokeColor=#006658;fontColor=#5C5C5C;swimlaneLine=0;fontSize=12;fillColor=#99FF33;" vertex="1" parent="WIyWlLk6GJQsqaUBKTNV-1">
          <mxGeometry x="720" y="-430" width="375" height="420" as="geometry">
            <mxRectangle x="690" y="-540" width="170" height="26" as="alternateBounds" />
          </mxGeometry>
        </mxCell>
        <mxCell id="Zo8zre_AHFBqHG1fS06w-49" value="" style="endArrow=none;html=1;rounded=0;strokeColor=#006658;fillColor=#21C0A5;fontSize=12;fontColor=#5C5C5C;entryX=1.003;entryY=0.212;entryDx=0;entryDy=0;entryPerimeter=0;" edge="1" parent="Zo8zre_AHFBqHG1fS06w-43" target="Zo8zre_AHFBqHG1fS06w-45">
          <mxGeometry relative="1" as="geometry">
            <mxPoint y="110" as="sourcePoint" />
            <mxPoint x="160" y="110" as="targetPoint" />
          </mxGeometry>
        </mxCell>
        <mxCell id="Zo8zre_AHFBqHG1fS06w-45" value="+ NSString* originUrl&#xa;+ NSString* url&#xa;+ NSString* currentUrl&#xa;+ H5RenderState renderState&#xa;+ id titleText&#xa;+ BOOL requireFullScreen&#xa;&#xa;+ (NSString*)pageidForReporter&#xa;+ (NSDictionary*)pageParam&#xa;+ (NSString*)parseUrlFromKey:(NSString*)urlKey params:(NSDictionary*)params&#xa;+(void)refresh&#xa;+(void)refreshWithInfo:(NSDictionary*)info&#xa;+ (void)closeAction:(id)sender&#xa;+ (void)goBackAction:(id)sender&#xa;+ (void)serviceAction:(id)sender&#xa;+(UIBarButtonItem*)createCustomBackBtn&#xa;+(UIBarButtonItem*)createServiceBtn&#xa;+(UIBarButtonItem*)createCloseBtn&#xa;+ (UIView*)textTipsOptimize:(NSString *)tips&#xa;+ (UIView*)textTipsOptimize:(NSString *)tips delay:(NSTimeInterval)delay&#xa;+ (UIView*)showBlackRectLoadingViewWithTxt:(NSString *)txt&#xa;+ (void)hideBlackRectLoadingView&#xa;+ (UIView *)loadingActivityView&#xa;+ (void)showLoadingIndicator:(BOOL)show&#xa;+ (void)showLoadingIndicatorWithType:(NSUInteger)loadingType loadingParams:(NSDictionary *)params&#xa;+ (void)hideLoadingIndicator&#xa;+ (void)refreshContainerBGWithOptions:(NSDictionary *)options&#xa;+ (void)refreshContainerTopWithOptions:(NSDictionary *)options&#xa;+ (void)onJSRuntimeException:(WXJSExceptionInfo*)exceptionInfo&#xa;+ (void)reportAppEvent:(NSDictionary *)event&#xa;+(BOOL)showDialogMaskWithOptions:(NSDictionary*)opts completion:(void (^)(BOOL finished))completion&#xa;+(BOOL)hideDialogMaskWithOptions:(NSDictionary*)opts completion:(void (^)(BOOL finished))completion" style="text;strokeColor=none;fillColor=none;align=left;verticalAlign=top;spacingLeft=4;spacingRight=4;overflow=hidden;rotatable=0;points=[[0,0.5],[1,0.5]];portConstraint=eastwest;fontSize=10;" vertex="1" parent="Zo8zre_AHFBqHG1fS06w-43">
          <mxGeometry y="26" width="375" height="394" as="geometry" />
        </mxCell>
        <mxCell id="Zo8zre_AHFBqHG1fS06w-50" value="H5BaseViewController" style="swimlane;fontStyle=1;align=center;verticalAlign=top;childLayout=stackLayout;horizontal=1;startSize=26;horizontalStack=0;resizeParent=1;resizeParentMax=0;resizeLast=0;collapsible=1;marginBottom=0;rounded=1;sketch=0;strokeColor=#006658;fillColor=#21C0A5;fontColor=#5C5C5C;swimlaneLine=0;" vertex="1" parent="WIyWlLk6GJQsqaUBKTNV-1">
          <mxGeometry x="355" y="-430" width="270" height="350" as="geometry">
            <mxRectangle x="310" y="-530" width="170" height="26" as="alternateBounds" />
          </mxGeometry>
        </mxCell>
        <mxCell id="Zo8zre_AHFBqHG1fS06w-53" value="" style="endArrow=none;html=1;rounded=0;strokeColor=#006658;fillColor=#21C0A5;fontSize=10;fontColor=#5C5C5C;entryX=1;entryY=0.444;entryDx=0;entryDy=0;entryPerimeter=0;" edge="1" parent="Zo8zre_AHFBqHG1fS06w-50" target="Zo8zre_AHFBqHG1fS06w-52">
          <mxGeometry relative="1" as="geometry">
            <mxPoint y="170" as="sourcePoint" />
            <mxPoint x="160" y="170" as="targetPoint" />
          </mxGeometry>
        </mxCell>
        <mxCell id="Zo8zre_AHFBqHG1fS06w-52" value="+ NSString* originUrl&#xa;+ NSString* url&#xa;+ NSString* currentUrl&#xa;+ H5RenderState renderState&#xa;+ id titleText&#xa;+ UIView *bkcView&#xa;+ UIImageView *topImageView&#xa;+ UIImageView *backgroundImageView&#xa;+ CGRect contentFrame&#xa;+ BOOL requireFullScreen&#xa;+ BOOL disableViewMoveUp&#xa;&#xa;+(BOOL)showDialogMaskWithOptions:(NSDictionary*)opts completion:(void (^)(BOOL finished))completion&#xa;+(BOOL)hideDialogMaskWithOptions:(NSDictionary*)opts completion:(void (^)(BOOL finished))completion&#xa;+(NSDictionary*)pageParam&#xa;+(NSString*)parseUrlFromKey:(NSString*)urlKey params:(NSDictionary*)params&#xa;+(void)parseInfoDic:(NSDictionary*)info&#xa;+(void)titleViewTapped:(UITapGestureRecognizer*)sender&#xa;+(void)handleAppEvent:(NSDictionary*)params&#xa;+(void)refresh&#xa;+(void)refreshWithInfo:(NSDictionary*)info&#xa;+(UIBarButtonItem*)createCloseBtn&#xa;+ (void)closeAction:(id)sender&#xa;+ (void)reportAppEvent:(NSDictionary *)eventId&#xa;+ (void)refreshBackgroundContent:(BOOL)isHave&#xa;+ (void)layoutContainerFrame" style="text;strokeColor=none;fillColor=none;align=left;verticalAlign=top;spacingLeft=4;spacingRight=4;overflow=hidden;rotatable=0;points=[[0,0.5],[1,0.5]];portConstraint=eastwest;fontSize=10;" vertex="1" parent="Zo8zre_AHFBqHG1fS06w-50">
          <mxGeometry y="26" width="270" height="324" as="geometry" />
        </mxCell>
        <mxCell id="Zo8zre_AHFBqHG1fS06w-54" value="BaseViewController" style="swimlane;fontStyle=1;align=center;verticalAlign=top;childLayout=stackLayout;horizontal=1;startSize=26;horizontalStack=0;resizeParent=1;resizeParentMax=0;resizeLast=0;collapsible=1;marginBottom=0;rounded=1;sketch=0;strokeColor=#006658;fillColor=#21C0A5;fontColor=#5C5C5C;swimlaneLine=0;" vertex="1" parent="WIyWlLk6GJQsqaUBKTNV-1">
          <mxGeometry x="320" y="-1040" width="350" height="550" as="geometry">
            <mxRectangle x="320" y="-1040" width="170" height="26" as="alternateBounds" />
          </mxGeometry>
        </mxCell>
        <mxCell id="Zo8zre_AHFBqHG1fS06w-57" value="" style="endArrow=none;html=1;rounded=0;strokeColor=#006658;fillColor=#21C0A5;fontSize=10;fontColor=#5C5C5C;entryX=1;entryY=0.229;entryDx=0;entryDy=0;entryPerimeter=0;" edge="1" parent="Zo8zre_AHFBqHG1fS06w-54" target="Zo8zre_AHFBqHG1fS06w-56">
          <mxGeometry relative="1" as="geometry">
            <mxPoint y="146" as="sourcePoint" />
            <mxPoint x="160" y="146" as="targetPoint" />
          </mxGeometry>
        </mxCell>
        <mxCell id="Zo8zre_AHFBqHG1fS06w-56" value="+ UIView * _refreshView&#xa;+ NSDictionary* _infoDic&#xa;+ UIButton* _btnDebug&#xa;+ UIView * _loadingActivityView&#xa;+ ZFModalTransitionAnimator* _transitionAnimator&#xa;+ BOOL viewIsAppear&#xa;+ BOOL viewIsDidAppear&#xa;+ NSDictionary *info&#xa;+ BOOL needDebug&#xa;&#xa;+ (instancetype)initWithNibName:(NSString *)nibNameOrNil bundle:(NSBundle *)nibBundleOrNil __attribute__((unavailable(&quot;use initWithInfo instead:&quot;)))&#xa;+ (id)initWithInfo:(NSDictionary *)info&#xa;+ (UIEdgeInsets)viewSafeAreaInsets&#xa;+ (NSString*)pageidForReporter&#xa;+ (void)appConfigChanged&#xa;+ (void)preDealloc&#xa;+ (UIView*)viewForSnapshot&#xa;+ (void)registerApplicationNotification&#xa;+ (void)unreigisterApplicationNotification&#xa;+ (void)baseAppDidEnterBackound:(NSNotification *)notification&#xa;+ (void)baseAppWillEnterForeground:(NSNotification *)notification&#xa;+ (void)reachabilityChanged:(NSNotification*)note&#xa;+ (void)didSelectedByMainTabBar&#xa;+ (void)startCheckWhiteScreen&#xa;+ (void)whetherIsEmptyView&#xa;+ (void)reportEmptyPercent:(NSInteger)percent inLocation:(NSString*)locStr url:(NSString*)urlstr&#xa;+ (void)sendDebugInfoAction:(UITapGestureRecognizer*)ges&#xa;+ (UIBarButtonItem*)createCustomBackBtn&#xa;+ (UIBarButtonItem*)createServiceBtn&#xa;+ (void)goBackAction:(id)sender&#xa;+ (void)popAction:(BOOL)animate&#xa;+ (void)serviceAction:(id)sender&#xa;+ (UIView*)textTipsOptimize:(NSString *)tips&#xa;+ (UIView*)textTipsOptimize:(NSString *)tips delay:(NSTimeInterval)delay&#xa;+ (UIView*)loadingActivityView&#xa;+ (void)showLoadingIndicator:(BOOL)show&#xa;+ (void)showBlackRectLoadingViewWithTxt:(NSString *)txt&#xa;+ (void)hideBlackRectLoadingView&#xa;+ (void)showLoadingIndicatorWithType:(LoadingViewType)loadingType loadingParams:(NSDictionary *)params&#xa;+ (void)hideLoadingIndicator&#xa;+ (UIView*)showNetErrTips:(BOOL)show options:(NSDictionary*)options&#xa;+ (void)netErrViewDidTapped:(UIButton *)sender&#xa;+ (void)onTestButtonTouched:(UIButton *)btn" style="text;strokeColor=none;fillColor=none;align=left;verticalAlign=top;spacingLeft=4;spacingRight=4;overflow=hidden;rotatable=0;points=[[0,0.5],[1,0.5]];portConstraint=eastwest;fontSize=10;" vertex="1" parent="Zo8zre_AHFBqHG1fS06w-54">
          <mxGeometry y="26" width="350" height="524" as="geometry" />
        </mxCell>
        <mxCell id="Zo8zre_AHFBqHG1fS06w-84" style="edgeStyle=orthogonalEdgeStyle;curved=0;rounded=1;sketch=0;orthogonalLoop=1;jettySize=auto;html=1;entryX=0.25;entryY=0;entryDx=0;entryDy=0;dashed=1;startArrow=block;startFill=0;endArrow=none;endFill=0;strokeColor=#006658;fillColor=#21C0A5;fontSize=10;fontColor=#FF9575;" edge="1" parent="WIyWlLk6GJQsqaUBKTNV-1" source="Zo8zre_AHFBqHG1fS06w-58" target="Zo8zre_AHFBqHG1fS06w-54">
          <mxGeometry relative="1" as="geometry">
            <Array as="points">
              <mxPoint x="200" y="-1040" />
            </Array>
          </mxGeometry>
        </mxCell>
        <mxCell id="Zo8zre_AHFBqHG1fS06w-58" value="YDRouterProtocol" style="swimlane;fontStyle=1;align=center;verticalAlign=top;childLayout=stackLayout;horizontal=1;startSize=26;horizontalStack=0;resizeParent=1;resizeParentMax=0;resizeLast=0;collapsible=1;marginBottom=0;rounded=1;sketch=0;strokeColor=#006658;fontColor=#5C5C5C;swimlaneLine=0;fontSize=12;fillColor=#99FF33;" vertex="1" parent="WIyWlLk6GJQsqaUBKTNV-1">
          <mxGeometry x="100" y="-1130" width="200" height="50" as="geometry">
            <mxRectangle x="690" y="-540" width="170" height="26" as="alternateBounds" />
          </mxGeometry>
        </mxCell>
        <mxCell id="Zo8zre_AHFBqHG1fS06w-60" value="+ (id)initWithInfo:(NSDictionary *)info" style="text;strokeColor=none;fillColor=none;align=left;verticalAlign=top;spacingLeft=4;spacingRight=4;overflow=hidden;rotatable=0;points=[[0,0.5],[1,0.5]];portConstraint=eastwest;fontSize=10;" vertex="1" parent="Zo8zre_AHFBqHG1fS06w-58">
          <mxGeometry y="26" width="200" height="24" as="geometry" />
        </mxCell>
        <mxCell id="Zo8zre_AHFBqHG1fS06w-86" style="edgeStyle=orthogonalEdgeStyle;curved=0;rounded=1;sketch=0;orthogonalLoop=1;jettySize=auto;html=1;entryX=0.5;entryY=0;entryDx=0;entryDy=0;dashed=1;startArrow=block;startFill=0;endArrow=none;endFill=0;strokeColor=#006658;fillColor=#21C0A5;fontSize=10;fontColor=#FF9575;" edge="1" parent="WIyWlLk6GJQsqaUBKTNV-1" source="Zo8zre_AHFBqHG1fS06w-61" target="Zo8zre_AHFBqHG1fS06w-54">
          <mxGeometry relative="1" as="geometry" />
        </mxCell>
        <mxCell id="Zo8zre_AHFBqHG1fS06w-61" value="YDViewControllerProtocol" style="swimlane;fontStyle=1;align=center;verticalAlign=top;childLayout=stackLayout;horizontal=1;startSize=26;horizontalStack=0;resizeParent=1;resizeParentMax=0;resizeLast=0;collapsible=1;marginBottom=0;rounded=1;sketch=0;strokeColor=#006658;fontColor=#5C5C5C;swimlaneLine=0;fontSize=12;fillColor=#99FF33;" vertex="1" parent="WIyWlLk6GJQsqaUBKTNV-1">
          <mxGeometry x="395" y="-1130" width="200" height="40" as="geometry">
            <mxRectangle x="690" y="-540" width="170" height="26" as="alternateBounds" />
          </mxGeometry>
        </mxCell>
        <mxCell id="Zo8zre_AHFBqHG1fS06w-87" style="edgeStyle=orthogonalEdgeStyle;curved=0;rounded=1;sketch=0;orthogonalLoop=1;jettySize=auto;html=1;entryX=0.5;entryY=0;entryDx=0;entryDy=0;startArrow=diamondThin;startFill=1;endArrow=none;endFill=0;strokeColor=#006658;fillColor=#21C0A5;fontSize=10;fontColor=#FF9575;" edge="1" parent="WIyWlLk6GJQsqaUBKTNV-1" source="Zo8zre_AHFBqHG1fS06w-65" target="Zo8zre_AHFBqHG1fS06w-61">
          <mxGeometry relative="1" as="geometry">
            <Array as="points">
              <mxPoint x="-35" y="-1170" />
              <mxPoint x="495" y="-1170" />
            </Array>
          </mxGeometry>
        </mxCell>
        <mxCell id="Zo8zre_AHFBqHG1fS06w-65" value="YDViewControllerLoadingProtocol" style="swimlane;fontStyle=1;align=center;verticalAlign=top;childLayout=stackLayout;horizontal=1;startSize=26;horizontalStack=0;resizeParent=1;resizeParentMax=0;resizeLast=0;collapsible=1;marginBottom=0;rounded=1;sketch=0;strokeColor=#006658;fontColor=#5C5C5C;swimlaneLine=0;fontSize=12;fillColor=#99FF33;" vertex="1" parent="WIyWlLk6GJQsqaUBKTNV-1">
          <mxGeometry x="-150" y="-1290" width="230" height="40" as="geometry">
            <mxRectangle x="690" y="-540" width="170" height="26" as="alternateBounds" />
          </mxGeometry>
        </mxCell>
        <mxCell id="Zo8zre_AHFBqHG1fS06w-90" style="edgeStyle=orthogonalEdgeStyle;curved=0;rounded=1;sketch=0;orthogonalLoop=1;jettySize=auto;html=1;entryX=0.5;entryY=0;entryDx=0;entryDy=0;startArrow=diamondThin;startFill=1;endArrow=none;endFill=0;strokeColor=#006658;fillColor=#21C0A5;fontSize=10;fontColor=#FF9575;" edge="1" parent="WIyWlLk6GJQsqaUBKTNV-1" source="Zo8zre_AHFBqHG1fS06w-67" target="Zo8zre_AHFBqHG1fS06w-61">
          <mxGeometry relative="1" as="geometry">
            <Array as="points">
              <mxPoint x="825" y="-1170" />
              <mxPoint x="495" y="-1170" />
            </Array>
          </mxGeometry>
        </mxCell>
        <mxCell id="Zo8zre_AHFBqHG1fS06w-67" value="YDViewControllerNavigationProtocol" style="swimlane;fontStyle=1;align=center;verticalAlign=top;childLayout=stackLayout;horizontal=1;startSize=26;horizontalStack=0;resizeParent=1;resizeParentMax=0;resizeLast=0;collapsible=1;marginBottom=0;rounded=1;sketch=0;strokeColor=#006658;fontColor=#5C5C5C;swimlaneLine=0;fontSize=12;fillColor=#99FF33;" vertex="1" parent="WIyWlLk6GJQsqaUBKTNV-1">
          <mxGeometry x="690" y="-1289" width="270" height="70" as="geometry">
            <mxRectangle x="690" y="-540" width="170" height="26" as="alternateBounds" />
          </mxGeometry>
        </mxCell>
        <mxCell id="Zo8zre_AHFBqHG1fS06w-68" value="+ (UITabBarController *)yd_tabBarController&#xa;+ (UINavigationController&lt;YDNavigationProtocol&gt; *)yd_navigationController" style="text;strokeColor=none;fillColor=none;align=left;verticalAlign=top;spacingLeft=4;spacingRight=4;overflow=hidden;rotatable=0;points=[[0,0.5],[1,0.5]];portConstraint=eastwest;fontSize=10;" vertex="1" parent="Zo8zre_AHFBqHG1fS06w-67">
          <mxGeometry y="26" width="270" height="44" as="geometry" />
        </mxCell>
        <mxCell id="Zo8zre_AHFBqHG1fS06w-88" style="edgeStyle=orthogonalEdgeStyle;curved=0;rounded=1;sketch=0;orthogonalLoop=1;jettySize=auto;html=1;entryX=0.5;entryY=0;entryDx=0;entryDy=0;startArrow=diamondThin;startFill=1;endArrow=none;endFill=0;strokeColor=#006658;fillColor=#21C0A5;fontSize=10;fontColor=#FF9575;" edge="1" parent="WIyWlLk6GJQsqaUBKTNV-1" source="Zo8zre_AHFBqHG1fS06w-69" target="Zo8zre_AHFBqHG1fS06w-61">
          <mxGeometry relative="1" as="geometry">
            <Array as="points">
              <mxPoint x="245" y="-1170" />
              <mxPoint x="495" y="-1170" />
            </Array>
          </mxGeometry>
        </mxCell>
        <mxCell id="Zo8zre_AHFBqHG1fS06w-69" value="YDViewControllerTabBarProtocol" style="swimlane;fontStyle=1;align=center;verticalAlign=top;childLayout=stackLayout;horizontal=1;startSize=26;horizontalStack=0;resizeParent=1;resizeParentMax=0;resizeLast=0;collapsible=1;marginBottom=0;rounded=1;sketch=0;strokeColor=#006658;fontColor=#5C5C5C;swimlaneLine=0;fontSize=12;fillColor=#99FF33;" vertex="1" parent="WIyWlLk6GJQsqaUBKTNV-1">
          <mxGeometry x="110" y="-1290" width="270" height="80" as="geometry">
            <mxRectangle x="690" y="-540" width="170" height="26" as="alternateBounds" />
          </mxGeometry>
        </mxCell>
        <mxCell id="Zo8zre_AHFBqHG1fS06w-70" value="+ (void)didSelectedInTabBarController&#xa;+ (BOOL)shoudSelectedInTabBarController&#xa;+ (void)didSelectedInTabBarControllerWhenAppeared" style="text;strokeColor=none;fillColor=none;align=left;verticalAlign=top;spacingLeft=4;spacingRight=4;overflow=hidden;rotatable=0;points=[[0,0.5],[1,0.5]];portConstraint=eastwest;fontSize=10;" vertex="1" parent="Zo8zre_AHFBqHG1fS06w-69">
          <mxGeometry y="26" width="270" height="54" as="geometry" />
        </mxCell>
        <mxCell id="Zo8zre_AHFBqHG1fS06w-89" style="edgeStyle=orthogonalEdgeStyle;curved=0;rounded=1;sketch=0;orthogonalLoop=1;jettySize=auto;html=1;entryX=0.5;entryY=0;entryDx=0;entryDy=0;startArrow=diamondThin;startFill=1;endArrow=none;endFill=0;strokeColor=#006658;fillColor=#21C0A5;fontSize=10;fontColor=#FF9575;" edge="1" parent="WIyWlLk6GJQsqaUBKTNV-1" source="Zo8zre_AHFBqHG1fS06w-71" target="Zo8zre_AHFBqHG1fS06w-61">
          <mxGeometry relative="1" as="geometry">
            <Array as="points">
              <mxPoint x="535" y="-1170" />
              <mxPoint x="495" y="-1170" />
            </Array>
          </mxGeometry>
        </mxCell>
        <mxCell id="Zo8zre_AHFBqHG1fS06w-71" value="YDViewControllerRefreshProtocol" style="swimlane;fontStyle=1;align=center;verticalAlign=top;childLayout=stackLayout;horizontal=1;startSize=26;horizontalStack=0;resizeParent=1;resizeParentMax=0;resizeLast=0;collapsible=1;marginBottom=0;rounded=1;sketch=0;strokeColor=#006658;fontColor=#5C5C5C;swimlaneLine=0;fontSize=12;fillColor=#99FF33;" vertex="1" parent="WIyWlLk6GJQsqaUBKTNV-1">
          <mxGeometry x="395" y="-1289" width="280" height="50" as="geometry">
            <mxRectangle x="690" y="-540" width="170" height="26" as="alternateBounds" />
          </mxGeometry>
        </mxCell>
        <mxCell id="Zo8zre_AHFBqHG1fS06w-72" value="+ (void)refreshViewControllerWithData:(NSDictionary *)data&#xa;" style="text;strokeColor=none;fillColor=none;align=left;verticalAlign=top;spacingLeft=4;spacingRight=4;overflow=hidden;rotatable=0;points=[[0,0.5],[1,0.5]];portConstraint=eastwest;fontSize=10;" vertex="1" parent="Zo8zre_AHFBqHG1fS06w-71">
          <mxGeometry y="26" width="280" height="24" as="geometry" />
        </mxCell>
        <mxCell id="Zo8zre_AHFBqHG1fS06w-77" value="" style="endArrow=none;html=1;strokeColor=#006658;fillColor=#21C0A5;fontSize=10;fontColor=#FF9575;entryX=0.5;entryY=0;entryDx=0;entryDy=0;startArrow=block;startFill=0;endFill=0;exitX=0.497;exitY=1;exitDx=0;exitDy=0;exitPerimeter=0;" edge="1" parent="WIyWlLk6GJQsqaUBKTNV-1" source="Zo8zre_AHFBqHG1fS06w-52" target="Zo8zre_AHFBqHG1fS06w-35">
          <mxGeometry width="50" height="50" relative="1" as="geometry">
            <mxPoint x="490" y="-170" as="sourcePoint" />
            <mxPoint x="340" y="-90" as="targetPoint" />
          </mxGeometry>
        </mxCell>
        <mxCell id="Zo8zre_AHFBqHG1fS06w-78" value="" style="endArrow=none;html=1;strokeColor=#006658;fillColor=#21C0A5;fontSize=10;fontColor=#FF9575;entryX=0.5;entryY=0;entryDx=0;entryDy=0;startArrow=block;startFill=0;endFill=0;exitX=0.486;exitY=1;exitDx=0;exitDy=0;exitPerimeter=0;" edge="1" parent="WIyWlLk6GJQsqaUBKTNV-1" source="Zo8zre_AHFBqHG1fS06w-56" target="Zo8zre_AHFBqHG1fS06w-50">
          <mxGeometry width="50" height="50" relative="1" as="geometry">
            <mxPoint x="490" y="-490" as="sourcePoint" />
            <mxPoint x="390" y="-190" as="targetPoint" />
          </mxGeometry>
        </mxCell>
        <mxCell id="Zo8zre_AHFBqHG1fS06w-133" value="" style="edgeStyle=orthogonalEdgeStyle;curved=0;rounded=1;sketch=0;orthogonalLoop=1;jettySize=auto;html=1;startArrow=none;startFill=0;endArrow=open;endFill=0;strokeColor=#006658;fillColor=#21C0A5;fontSize=12;fontColor=#000000;" edge="1" parent="WIyWlLk6GJQsqaUBKTNV-1" source="Zo8zre_AHFBqHG1fS06w-131" target="Zo8zre_AHFBqHG1fS06w-132">
          <mxGeometry relative="1" as="geometry" />
        </mxCell>
        <mxCell id="Zo8zre_AHFBqHG1fS06w-131" value="开始" style="strokeWidth=2;html=1;shape=mxgraph.flowchart.start_1;whiteSpace=wrap;rounded=1;shadow=0;glass=0;labelBackgroundColor=none;sketch=0;fontSize=12;fontColor=#000000;fillColor=none;" vertex="1" parent="WIyWlLk6GJQsqaUBKTNV-1">
          <mxGeometry x="-85" y="860" width="100" height="50" as="geometry" />
        </mxCell>
        <mxCell id="Zo8zre_AHFBqHG1fS06w-135" value="" style="edgeStyle=orthogonalEdgeStyle;curved=0;rounded=1;sketch=0;orthogonalLoop=1;jettySize=auto;html=1;startArrow=none;startFill=0;endArrow=open;endFill=0;strokeColor=#006658;fillColor=#21C0A5;fontSize=12;fontColor=#000000;" edge="1" parent="WIyWlLk6GJQsqaUBKTNV-1" source="Zo8zre_AHFBqHG1fS06w-132" target="Zo8zre_AHFBqHG1fS06w-134">
          <mxGeometry relative="1" as="geometry" />
        </mxCell>
        <mxCell id="Zo8zre_AHFBqHG1fS06w-132" value="VBUISkeletonTask" style="rounded=1;shadow=0;strokeWidth=2;fillColor=none;glass=0;sketch=0;fontSize=10;fontStyle=1;fontColor=#009900;" vertex="1" parent="WIyWlLk6GJQsqaUBKTNV-1">
          <mxGeometry x="-87.5" y="940" width="105" height="40" as="geometry" />
        </mxCell>
        <mxCell id="Zo8zre_AHFBqHG1fS06w-184" value="" style="edgeStyle=orthogonalEdgeStyle;curved=0;rounded=1;sketch=0;orthogonalLoop=1;jettySize=auto;html=1;startArrow=none;startFill=0;endArrow=open;endFill=0;strokeColor=#006658;fillColor=#21C0A5;fontSize=10;fontColor=#0000FF;" edge="1" parent="WIyWlLk6GJQsqaUBKTNV-1" source="Zo8zre_AHFBqHG1fS06w-134" target="Zo8zre_AHFBqHG1fS06w-183">
          <mxGeometry relative="1" as="geometry" />
        </mxCell>
        <mxCell id="Zo8zre_AHFBqHG1fS06w-134" value="UISkeleton" style="rounded=1;shadow=0;strokeWidth=2;fillColor=none;glass=0;sketch=0;fontSize=11;fontStyle=1;fontColor=#009900;" vertex="1" parent="WIyWlLk6GJQsqaUBKTNV-1">
          <mxGeometry x="-85" y="1021" width="100" height="30" as="geometry" />
        </mxCell>
        <mxCell id="Zo8zre_AHFBqHG1fS06w-140" value="" style="edgeStyle=orthogonalEdgeStyle;curved=0;rounded=1;sketch=0;orthogonalLoop=1;jettySize=auto;html=1;startArrow=none;startFill=0;endArrow=open;endFill=0;strokeColor=#006658;fillColor=#21C0A5;fontSize=10;fontColor=#000000;" edge="1" parent="WIyWlLk6GJQsqaUBKTNV-1" source="Zo8zre_AHFBqHG1fS06w-137" target="Zo8zre_AHFBqHG1fS06w-139">
          <mxGeometry relative="1" as="geometry" />
        </mxCell>
        <mxCell id="Zo8zre_AHFBqHG1fS06w-143" value="" style="edgeStyle=orthogonalEdgeStyle;curved=0;rounded=1;sketch=0;orthogonalLoop=1;jettySize=auto;html=1;startArrow=none;startFill=0;endArrow=open;endFill=0;strokeColor=#006658;fillColor=#21C0A5;fontSize=10;fontColor=#000000;" edge="1" parent="WIyWlLk6GJQsqaUBKTNV-1" source="Zo8zre_AHFBqHG1fS06w-137" target="Zo8zre_AHFBqHG1fS06w-142">
          <mxGeometry relative="1" as="geometry" />
        </mxCell>
        <mxCell id="Zo8zre_AHFBqHG1fS06w-137" value="有没有缓存&#xa;（kTabbarConfigKey）" style="rhombus;rounded=1;shadow=0;strokeWidth=2;fillColor=none;glass=0;sketch=0;fontSize=10;" vertex="1" parent="WIyWlLk6GJQsqaUBKTNV-1">
          <mxGeometry x="163.48" y="1064" width="133.04" height="90" as="geometry" />
        </mxCell>
        <mxCell id="Zo8zre_AHFBqHG1fS06w-146" value="" style="edgeStyle=orthogonalEdgeStyle;curved=0;rounded=1;sketch=0;orthogonalLoop=1;jettySize=auto;html=1;startArrow=none;startFill=0;endArrow=open;endFill=0;strokeColor=#006658;fillColor=#21C0A5;fontSize=10;fontColor=#000000;" edge="1" parent="WIyWlLk6GJQsqaUBKTNV-1" source="Zo8zre_AHFBqHG1fS06w-139" target="Zo8zre_AHFBqHG1fS06w-145">
          <mxGeometry relative="1" as="geometry" />
        </mxCell>
        <mxCell id="Zo8zre_AHFBqHG1fS06w-139" value="读取本地&#xa;tabbarConfig_v2.json" style="rounded=1;shadow=0;fontSize=10;strokeWidth=2;fillColor=none;glass=0;sketch=0;fontStyle=0" vertex="1" parent="WIyWlLk6GJQsqaUBKTNV-1">
          <mxGeometry x="369.99999999999994" y="1079" width="120" height="60" as="geometry" />
        </mxCell>
        <mxCell id="Zo8zre_AHFBqHG1fS06w-141" value="NO" style="text;html=1;align=center;verticalAlign=middle;resizable=0;points=[];autosize=1;fontSize=10;fontColor=#000000;" vertex="1" parent="WIyWlLk6GJQsqaUBKTNV-1">
          <mxGeometry x="320" y="1090" width="30" height="20" as="geometry" />
        </mxCell>
        <mxCell id="Zo8zre_AHFBqHG1fS06w-147" style="edgeStyle=orthogonalEdgeStyle;curved=0;rounded=1;sketch=0;orthogonalLoop=1;jettySize=auto;html=1;entryX=0.5;entryY=1;entryDx=0;entryDy=0;startArrow=none;startFill=0;endArrow=open;endFill=0;strokeColor=#006658;fillColor=#21C0A5;fontSize=10;fontColor=#000000;" edge="1" parent="WIyWlLk6GJQsqaUBKTNV-1" source="Zo8zre_AHFBqHG1fS06w-142" target="Zo8zre_AHFBqHG1fS06w-145">
          <mxGeometry relative="1" as="geometry" />
        </mxCell>
        <mxCell id="Zo8zre_AHFBqHG1fS06w-142" value="从缓存获取值" style="rounded=1;shadow=0;fontSize=10;strokeWidth=2;fillColor=none;glass=0;sketch=0;" vertex="1" parent="WIyWlLk6GJQsqaUBKTNV-1">
          <mxGeometry x="180" y="1210" width="100" height="30" as="geometry" />
        </mxCell>
        <mxCell id="Zo8zre_AHFBqHG1fS06w-144" value="YES" style="text;html=1;align=center;verticalAlign=middle;resizable=0;points=[];autosize=1;fontSize=10;fontColor=#000000;" vertex="1" parent="WIyWlLk6GJQsqaUBKTNV-1">
          <mxGeometry x="230" y="1169" width="40" height="20" as="geometry" />
        </mxCell>
        <mxCell id="Zo8zre_AHFBqHG1fS06w-173" value="" style="edgeStyle=orthogonalEdgeStyle;curved=0;rounded=1;sketch=0;orthogonalLoop=1;jettySize=auto;html=1;startArrow=none;startFill=0;endArrow=open;endFill=0;strokeColor=#006658;fillColor=#21C0A5;fontSize=10;fontColor=#000000;" edge="1" parent="WIyWlLk6GJQsqaUBKTNV-1" source="Zo8zre_AHFBqHG1fS06w-145" target="Zo8zre_AHFBqHG1fS06w-172">
          <mxGeometry relative="1" as="geometry" />
        </mxCell>
        <mxCell id="Zo8zre_AHFBqHG1fS06w-145" value="获取到config&#xa;YDTabBarModel" style="rounded=1;shadow=0;fontSize=10;strokeWidth=2;fillColor=none;glass=0;sketch=0;fontStyle=0;" vertex="1" parent="WIyWlLk6GJQsqaUBKTNV-1">
          <mxGeometry x="540" y="1088.25" width="90" height="41.75" as="geometry" />
        </mxCell>
        <mxCell id="Zo8zre_AHFBqHG1fS06w-154" value="" style="edgeStyle=orthogonalEdgeStyle;curved=0;rounded=1;sketch=0;orthogonalLoop=1;jettySize=auto;html=1;startArrow=none;startFill=0;endArrow=open;endFill=0;strokeColor=#006658;fillColor=#21C0A5;fontSize=10;fontColor=#009900;" edge="1" parent="WIyWlLk6GJQsqaUBKTNV-1" source="Zo8zre_AHFBqHG1fS06w-148" target="Zo8zre_AHFBqHG1fS06w-153">
          <mxGeometry relative="1" as="geometry" />
        </mxCell>
        <mxCell id="Zo8zre_AHFBqHG1fS06w-148" value="VXWeexViewController" style="rounded=1;shadow=0;fontSize=10;fontStyle=1;strokeWidth=2;fillColor=none;glass=0;sketch=0;fontColor=#009900;" vertex="1" parent="WIyWlLk6GJQsqaUBKTNV-1">
          <mxGeometry x="870" y="1085.94" width="130" height="46.38" as="geometry" />
        </mxCell>
        <mxCell id="Zo8zre_AHFBqHG1fS06w-156" value="" style="edgeStyle=orthogonalEdgeStyle;curved=0;rounded=1;sketch=0;orthogonalLoop=1;jettySize=auto;html=1;startArrow=none;startFill=0;endArrow=open;endFill=0;strokeColor=#006658;fillColor=#21C0A5;fontSize=10;fontColor=#000000;" edge="1" parent="WIyWlLk6GJQsqaUBKTNV-1" source="Zo8zre_AHFBqHG1fS06w-153" target="Zo8zre_AHFBqHG1fS06w-155">
          <mxGeometry relative="1" as="geometry" />
        </mxCell>
        <mxCell id="Zo8zre_AHFBqHG1fS06w-153" value="设置WeexSDK" style="rounded=1;shadow=0;fontSize=10;fontStyle=0;strokeWidth=2;fillColor=none;glass=0;sketch=0;" vertex="1" parent="WIyWlLk6GJQsqaUBKTNV-1">
          <mxGeometry x="1060" y="1088.5" width="115" height="41" as="geometry" />
        </mxCell>
        <mxCell id="Zo8zre_AHFBqHG1fS06w-158" value="" style="edgeStyle=orthogonalEdgeStyle;curved=0;rounded=1;sketch=0;orthogonalLoop=1;jettySize=auto;html=1;startArrow=none;startFill=0;endArrow=open;endFill=0;strokeColor=#006658;fillColor=#21C0A5;fontSize=10;fontColor=#000000;" edge="1" parent="WIyWlLk6GJQsqaUBKTNV-1" source="Zo8zre_AHFBqHG1fS06w-155" target="Zo8zre_AHFBqHG1fS06w-157">
          <mxGeometry relative="1" as="geometry" />
        </mxCell>
        <mxCell id="Zo8zre_AHFBqHG1fS06w-161" value="" style="edgeStyle=orthogonalEdgeStyle;curved=0;rounded=1;sketch=0;orthogonalLoop=1;jettySize=auto;html=1;startArrow=none;startFill=0;endArrow=open;endFill=0;strokeColor=#006658;fillColor=#21C0A5;fontSize=10;fontColor=#000000;" edge="1" parent="WIyWlLk6GJQsqaUBKTNV-1" source="Zo8zre_AHFBqHG1fS06w-155" target="Zo8zre_AHFBqHG1fS06w-160">
          <mxGeometry relative="1" as="geometry" />
        </mxCell>
        <mxCell id="Zo8zre_AHFBqHG1fS06w-155" value="是否需要预渲染" style="rhombus;rounded=1;shadow=0;fontSize=10;fontStyle=0;strokeWidth=2;fillColor=none;glass=0;sketch=0;" vertex="1" parent="WIyWlLk6GJQsqaUBKTNV-1">
          <mxGeometry x="1077.5" y="1160" width="80" height="80" as="geometry" />
        </mxCell>
        <mxCell id="Zo8zre_AHFBqHG1fS06w-166" style="edgeStyle=orthogonalEdgeStyle;curved=0;rounded=1;sketch=0;orthogonalLoop=1;jettySize=auto;html=1;startArrow=none;startFill=0;endArrow=open;endFill=0;strokeColor=#006658;fillColor=#21C0A5;fontSize=10;fontColor=#000000;exitX=0.5;exitY=1;exitDx=0;exitDy=0;" edge="1" parent="WIyWlLk6GJQsqaUBKTNV-1" source="Zo8zre_AHFBqHG1fS06w-157">
          <mxGeometry relative="1" as="geometry">
            <mxPoint x="1342.5" y="1199" as="sourcePoint" />
            <mxPoint x="1120" y="1330" as="targetPoint" />
            <Array as="points">
              <mxPoint x="1283" y="1330" />
            </Array>
          </mxGeometry>
        </mxCell>
        <mxCell id="Zo8zre_AHFBqHG1fS06w-157" value="设置WXSDKInstance" style="rounded=1;shadow=0;fontSize=10;fontStyle=0;strokeWidth=2;fillColor=none;glass=0;sketch=0;" vertex="1" parent="WIyWlLk6GJQsqaUBKTNV-1">
          <mxGeometry x="1222.5" y="1179.38" width="120" height="41.25" as="geometry" />
        </mxCell>
        <mxCell id="Zo8zre_AHFBqHG1fS06w-159" value="NO" style="text;html=1;align=center;verticalAlign=middle;resizable=0;points=[];autosize=1;fontSize=10;fontColor=#000000;" vertex="1" parent="WIyWlLk6GJQsqaUBKTNV-1">
          <mxGeometry x="1175" y="1169" width="30" height="20" as="geometry" />
        </mxCell>
        <mxCell id="Zo8zre_AHFBqHG1fS06w-179" style="edgeStyle=orthogonalEdgeStyle;curved=0;rounded=1;sketch=0;orthogonalLoop=1;jettySize=auto;html=1;startArrow=none;startFill=0;endArrow=open;endFill=0;strokeColor=#006658;fillColor=#21C0A5;fontSize=10;fontColor=#000000;" edge="1" parent="WIyWlLk6GJQsqaUBKTNV-1" source="Zo8zre_AHFBqHG1fS06w-160" target="Zo8zre_AHFBqHG1fS06w-163">
          <mxGeometry relative="1" as="geometry" />
        </mxCell>
        <mxCell id="Zo8zre_AHFBqHG1fS06w-160" value="设置WXPrerenderManager" style="rounded=1;shadow=0;fontSize=10;fontStyle=0;strokeWidth=2;fillColor=none;glass=0;sketch=0;" vertex="1" parent="WIyWlLk6GJQsqaUBKTNV-1">
          <mxGeometry x="1052.5" y="1271.8200000000002" width="130" height="40" as="geometry" />
        </mxCell>
        <mxCell id="Zo8zre_AHFBqHG1fS06w-162" value="YES" style="text;html=1;align=center;verticalAlign=middle;resizable=0;points=[];autosize=1;fontSize=10;fontColor=#000000;" vertex="1" parent="WIyWlLk6GJQsqaUBKTNV-1">
          <mxGeometry x="1130" y="1240" width="40" height="20" as="geometry" />
        </mxCell>
        <mxCell id="Zo8zre_AHFBqHG1fS06w-182" value="" style="edgeStyle=orthogonalEdgeStyle;curved=0;rounded=1;sketch=0;orthogonalLoop=1;jettySize=auto;html=1;startArrow=none;startFill=0;endArrow=open;endFill=0;strokeColor=#006658;fillColor=#21C0A5;fontSize=10;fontColor=#000000;" edge="1" parent="WIyWlLk6GJQsqaUBKTNV-1" source="Zo8zre_AHFBqHG1fS06w-163" target="Zo8zre_AHFBqHG1fS06w-181">
          <mxGeometry relative="1" as="geometry" />
        </mxCell>
        <mxCell id="Zo8zre_AHFBqHG1fS06w-163" value="渲染出页面" style="rounded=1;shadow=0;fontSize=10;fontStyle=0;strokeWidth=2;fillColor=none;glass=0;sketch=0;" vertex="1" parent="WIyWlLk6GJQsqaUBKTNV-1">
          <mxGeometry x="1061.5" y="1370" width="112" height="30" as="geometry" />
        </mxCell>
        <mxCell id="Zo8zre_AHFBqHG1fS06w-176" value="" style="edgeStyle=orthogonalEdgeStyle;curved=0;rounded=1;sketch=0;orthogonalLoop=1;jettySize=auto;html=1;startArrow=none;startFill=0;endArrow=open;endFill=0;strokeColor=#006658;fillColor=#21C0A5;fontSize=10;fontColor=#000000;" edge="1" parent="WIyWlLk6GJQsqaUBKTNV-1" source="Zo8zre_AHFBqHG1fS06w-172">
          <mxGeometry relative="1" as="geometry">
            <mxPoint x="867.5" y="1109" as="targetPoint" />
          </mxGeometry>
        </mxCell>
        <mxCell id="Zo8zre_AHFBqHG1fS06w-172" value="H5BaseViewController&#xa;解析得到url" style="rounded=1;shadow=0;fontSize=10;fontStyle=0;strokeWidth=2;fillColor=none;glass=0;sketch=0;" vertex="1" parent="WIyWlLk6GJQsqaUBKTNV-1">
          <mxGeometry x="690" y="1083.56" width="130" height="50.88" as="geometry" />
        </mxCell>
        <mxCell id="Zo8zre_AHFBqHG1fS06w-174" value="&lt;font&gt;config&lt;/font&gt;" style="text;html=1;align=center;verticalAlign=middle;resizable=0;points=[];autosize=1;fontSize=10;fontStyle=1;fontColor=#0000FF;" vertex="1" parent="WIyWlLk6GJQsqaUBKTNV-1">
          <mxGeometry x="630" y="1090" width="50" height="20" as="geometry" />
        </mxCell>
        <mxCell id="Zo8zre_AHFBqHG1fS06w-177" value="url" style="text;align=center;verticalAlign=middle;resizable=0;points=[];autosize=1;fontSize=10;fontColor=#0000FF;fontStyle=1" vertex="1" parent="WIyWlLk6GJQsqaUBKTNV-1">
          <mxGeometry x="824" y="1090" width="30" height="20" as="geometry" />
        </mxCell>
        <mxCell id="Zo8zre_AHFBqHG1fS06w-178" value="url" style="text;align=center;verticalAlign=middle;resizable=0;points=[];autosize=1;fontSize=10;fontColor=#0000FF;fontStyle=1" vertex="1" parent="WIyWlLk6GJQsqaUBKTNV-1">
          <mxGeometry x="1020" y="1088.5" width="30" height="20" as="geometry" />
        </mxCell>
        <mxCell id="Zo8zre_AHFBqHG1fS06w-180" value="url" style="text;align=center;verticalAlign=middle;resizable=0;points=[];autosize=1;fontSize=10;fontColor=#0000FF;fontStyle=1" vertex="1" parent="WIyWlLk6GJQsqaUBKTNV-1">
          <mxGeometry x="1120" y="1340" width="30" height="20" as="geometry" />
        </mxCell>
        <mxCell id="Zo8zre_AHFBqHG1fS06w-181" value="callNativeModule已经注册到js上下文，&#xa;js执行到对应事件利用runtime动态调用原生事件" style="rounded=1;shadow=0;fontSize=10;fontStyle=0;strokeWidth=2;fillColor=none;glass=0;sketch=0;" vertex="1" parent="WIyWlLk6GJQsqaUBKTNV-1">
          <mxGeometry x="1005.63" y="1430" width="223.75" height="50" as="geometry" />
        </mxCell>
        <mxCell id="Zo8zre_AHFBqHG1fS06w-186" value="" style="edgeStyle=orthogonalEdgeStyle;curved=0;rounded=1;sketch=0;orthogonalLoop=1;jettySize=auto;html=1;startArrow=none;startFill=0;endArrow=open;endFill=0;strokeColor=#006658;fillColor=#21C0A5;fontSize=10;fontColor=#0000FF;" edge="1" parent="WIyWlLk6GJQsqaUBKTNV-1" source="Zo8zre_AHFBqHG1fS06w-183" target="Zo8zre_AHFBqHG1fS06w-185">
          <mxGeometry relative="1" as="geometry" />
        </mxCell>
        <mxCell id="Zo8zre_AHFBqHG1fS06w-187" style="edgeStyle=orthogonalEdgeStyle;curved=0;rounded=1;sketch=0;orthogonalLoop=1;jettySize=auto;html=1;entryX=0;entryY=0.5;entryDx=0;entryDy=0;startArrow=none;startFill=0;endArrow=open;endFill=0;strokeColor=#006658;fillColor=#21C0A5;fontSize=10;fontColor=#000000;" edge="1" parent="WIyWlLk6GJQsqaUBKTNV-1" source="Zo8zre_AHFBqHG1fS06w-183" target="Zo8zre_AHFBqHG1fS06w-137">
          <mxGeometry relative="1" as="geometry" />
        </mxCell>
        <mxCell id="Zo8zre_AHFBqHG1fS06w-183" value="设置TabbarController" style="rounded=1;shadow=0;fontSize=10;fontStyle=0;strokeWidth=2;fillColor=none;glass=0;sketch=0;" vertex="1" parent="WIyWlLk6GJQsqaUBKTNV-1">
          <mxGeometry x="-112.5" y="1089" width="155" height="41" as="geometry" />
        </mxCell>
        <mxCell id="Zo8zre_AHFBqHG1fS06w-188" style="edgeStyle=orthogonalEdgeStyle;curved=0;rounded=1;sketch=0;orthogonalLoop=1;jettySize=auto;html=1;startArrow=none;startFill=0;endArrow=open;endFill=0;strokeColor=#006658;fillColor=#21C0A5;fontSize=10;fontColor=#000000;" edge="1" parent="WIyWlLk6GJQsqaUBKTNV-1" source="Zo8zre_AHFBqHG1fS06w-185">
          <mxGeometry relative="1" as="geometry">
            <mxPoint x="120" y="1110" as="targetPoint" />
          </mxGeometry>
        </mxCell>
        <mxCell id="Zo8zre_AHFBqHG1fS06w-185" value="从HomeFragment获取最新tabbarConfig，&#xa;并保存在缓存" style="rounded=1;shadow=0;fontSize=10;fontStyle=0;strokeWidth=2;fillColor=none;glass=0;sketch=0;" vertex="1" parent="WIyWlLk6GJQsqaUBKTNV-1">
          <mxGeometry x="-133.75" y="1180" width="197.5" height="50" as="geometry" />
        </mxCell>
        <mxCell id="Zo8zre_AHFBqHG1fS06w-9" value="VXAppModule" style="swimlane;fontStyle=1;align=center;verticalAlign=top;childLayout=stackLayout;horizontal=1;startSize=26;horizontalStack=0;resizeParent=1;resizeParentMax=0;resizeLast=0;collapsible=1;marginBottom=0;rounded=1;strokeColor=#006658;fillColor=#21C0A5;fontColor=#5C5C5C;swimlaneLine=0;glass=0;shadow=0;" vertex="1" parent="WIyWlLk6GJQsqaUBKTNV-1">
          <mxGeometry x="-10" y="510" width="280" height="110" as="geometry">
            <mxRectangle x="260" y="210" width="110" height="26" as="alternateBounds" />
          </mxGeometry>
        </mxCell>
        <mxCell id="Zo8zre_AHFBqHG1fS06w-12" value="- (void)print:(id)obj&#xa;- (NSDictionary*)appConfig&#xa;- (NSDictionary *)serverTime&#xa;- (void)refresh&#xa;- (void)callApp:(NSDictionary*)params callback:(WXModuleKeepAliveCallback)callback&#xa;- (NSDictionary*)callAppSync:(NSDictionary*)params" style="text;strokeColor=none;fillColor=none;align=left;verticalAlign=top;spacingLeft=4;spacingRight=4;overflow=hidden;rotatable=0;points=[[0,0.5],[1,0.5]];portConstraint=eastwest;fontColor=#5C5C5C;fontSize=10;labelBorderColor=none;labelBackgroundColor=none;" vertex="1" parent="Zo8zre_AHFBqHG1fS06w-9">
          <mxGeometry y="26" width="280" height="84" as="geometry" />
        </mxCell>
        <mxCell id="Zo8zre_AHFBqHG1fS06w-93" value="WXModuleProtocol" style="swimlane;fontStyle=1;align=center;verticalAlign=top;childLayout=stackLayout;horizontal=1;startSize=26;horizontalStack=0;resizeParent=1;resizeParentMax=0;resizeLast=0;collapsible=1;marginBottom=0;rounded=1;sketch=0;strokeColor=#006658;fontColor=#5C5C5C;swimlaneLine=0;fontSize=12;fillColor=#99FF33;" vertex="1" parent="WIyWlLk6GJQsqaUBKTNV-1">
          <mxGeometry x="25" y="370" width="210" height="90" as="geometry">
            <mxRectangle x="690" y="-540" width="170" height="26" as="alternateBounds" />
          </mxGeometry>
        </mxCell>
        <mxCell id="Zo8zre_AHFBqHG1fS06w-94" value="+ WXSDKInstance *weexInstance&#xa;&#xa;+ (dispatch_queue_t)targetExecuteQueue&#xa;+ (NSThread *)targetExecuteThread" style="text;strokeColor=none;fillColor=none;align=left;verticalAlign=top;spacingLeft=4;spacingRight=4;overflow=hidden;rotatable=0;points=[[0,0.5],[1,0.5]];portConstraint=eastwest;fontSize=10;" vertex="1" parent="Zo8zre_AHFBqHG1fS06w-93">
          <mxGeometry y="26" width="210" height="64" as="geometry" />
        </mxCell>
        <mxCell id="Zo8zre_AHFBqHG1fS06w-95" value="" style="endArrow=none;html=1;strokeColor=#006658;fillColor=#21C0A5;fontSize=10;fontColor=#FF9575;exitX=-0.001;exitY=0.378;exitDx=0;exitDy=0;exitPerimeter=0;entryX=0.999;entryY=0.378;entryDx=0;entryDy=0;entryPerimeter=0;" edge="1" parent="Zo8zre_AHFBqHG1fS06w-93" source="Zo8zre_AHFBqHG1fS06w-94" target="Zo8zre_AHFBqHG1fS06w-94">
          <mxGeometry width="50" height="50" relative="1" as="geometry">
            <mxPoint x="320" y="90" as="sourcePoint" />
            <mxPoint x="370" y="40" as="targetPoint" />
          </mxGeometry>
        </mxCell>
        <mxCell id="Zo8zre_AHFBqHG1fS06w-97" style="edgeStyle=orthogonalEdgeStyle;curved=0;rounded=1;sketch=0;orthogonalLoop=1;jettySize=auto;html=1;entryX=0.504;entryY=1.006;entryDx=0;entryDy=0;entryPerimeter=0;dashed=1;startArrow=none;startFill=0;endArrow=block;endFill=0;strokeColor=#006658;fillColor=#21C0A5;fontSize=10;fontColor=#FF9575;" edge="1" parent="WIyWlLk6GJQsqaUBKTNV-1" source="Zo8zre_AHFBqHG1fS06w-9" target="Zo8zre_AHFBqHG1fS06w-94">
          <mxGeometry x="-90" y="240" as="geometry" />
        </mxCell>
        <mxCell id="Zo8zre_AHFBqHG1fS06w-105" value="&lt;p class=&quot;p1&quot; style=&quot;margin: 0px ; font-stretch: normal ; font-size: 14px ; line-height: normal ; font-family: &amp;#34;menlo&amp;#34;&quot;&gt;WeexSDK&lt;/p&gt;" style="rounded=0;whiteSpace=wrap;html=1;shadow=0;glass=0;labelBackgroundColor=none;sketch=0;fontSize=32;fillColor=none;strokeWidth=1;" vertex="1" parent="WIyWlLk6GJQsqaUBKTNV-1">
          <mxGeometry x="70" y="280" width="120" height="40" as="geometry" />
        </mxCell>
        <mxCell id="Zo8zre_AHFBqHG1fS06w-106" style="edgeStyle=orthogonalEdgeStyle;curved=0;rounded=1;sketch=0;orthogonalLoop=1;jettySize=auto;html=1;entryX=0.5;entryY=1;entryDx=0;entryDy=0;startArrow=none;startFill=0;endArrow=open;endFill=0;strokeColor=#006658;fillColor=#21C0A5;fontSize=32;fontColor=#000000;dashed=1;" edge="1" parent="WIyWlLk6GJQsqaUBKTNV-1" source="Zo8zre_AHFBqHG1fS06w-93" target="Zo8zre_AHFBqHG1fS06w-105">
          <mxGeometry x="-90" y="240" as="geometry" />
        </mxCell>
        <mxCell id="CemV3iuk9sfsoVy3u5H--5" style="edgeStyle=orthogonalEdgeStyle;curved=0;rounded=1;sketch=0;orthogonalLoop=1;jettySize=auto;html=1;entryX=0.504;entryY=0.997;entryDx=0;entryDy=0;entryPerimeter=0;dashed=1;endArrow=block;endFill=0;strokeColor=#006658;fillColor=#21C0A5;fontSize=12;fontColor=#5C5C5C;" edge="1" parent="WIyWlLk6GJQsqaUBKTNV-1" source="CemV3iuk9sfsoVy3u5H--0" target="CemV3iuk9sfsoVy3u5H--4">
          <mxGeometry relative="1" as="geometry" />
        </mxCell>
        <mxCell id="CemV3iuk9sfsoVy3u5H--0" value="VBUISkeletonTask" style="swimlane;fontStyle=1;align=center;verticalAlign=top;childLayout=stackLayout;horizontal=1;startSize=26;horizontalStack=0;resizeParent=1;resizeParentMax=0;resizeLast=0;collapsible=1;marginBottom=0;rounded=1;sketch=0;strokeColor=#006658;fillColor=#21C0A5;fontColor=#5C5C5C;" vertex="1" parent="WIyWlLk6GJQsqaUBKTNV-1">
          <mxGeometry x="-798" y="578" width="160" height="34" as="geometry" />
        </mxCell>
        <mxCell id="CemV3iuk9sfsoVy3u5H--1" value="ALCTaskProtocol" style="swimlane;fontStyle=1;align=center;verticalAlign=top;childLayout=stackLayout;horizontal=1;startSize=26;horizontalStack=0;resizeParent=1;resizeParentMax=0;resizeLast=0;collapsible=1;marginBottom=0;rounded=1;sketch=0;strokeColor=#006658;fontSize=12;fontColor=#5C5C5C;fillColor=#00CC00;" vertex="1" parent="WIyWlLk6GJQsqaUBKTNV-1">
          <mxGeometry x="-880" y="320" width="320" height="210" as="geometry" />
        </mxCell>
        <mxCell id="CemV3iuk9sfsoVy3u5H--2" value="+ AppInitializeTaskQueue taskQueue &#xa;+ ALCTimeRecorder *_Nullable taskCost &#xa;+ BOOL isALCTaskExecuted &#xa;+ NSDictionary *weakLaunchOptions " style="text;strokeColor=none;fillColor=none;align=left;verticalAlign=top;spacingLeft=4;spacingRight=4;overflow=hidden;rotatable=0;points=[[0,0.5],[1,0.5]];portConstraint=eastwest;fontSize=10;" vertex="1" parent="CemV3iuk9sfsoVy3u5H--1">
          <mxGeometry y="26" width="320" height="54" as="geometry" />
        </mxCell>
        <mxCell id="CemV3iuk9sfsoVy3u5H--3" value="" style="line;strokeWidth=1;fillColor=none;align=left;verticalAlign=middle;spacingTop=-1;spacingLeft=3;spacingRight=3;rotatable=0;labelPosition=right;points=[];portConstraint=eastwest;" vertex="1" parent="CemV3iuk9sfsoVy3u5H--1">
          <mxGeometry y="80" width="320" height="8" as="geometry" />
        </mxCell>
        <mxCell id="CemV3iuk9sfsoVy3u5H--4" value="+ (void)executeTask&#xa;+ (NSArray&lt;ALCTimeRecorder *&gt; *_Nonnull)extraInfo&#xa;+ (NSString _Nonnull *)taskName&#xa;+ (void)alcInitialized&#xa;+ (void)addDependency:(NSString _Nonnull *)dependencyTaskName&#xa;+ (void)addDependencyList:(NSArray&lt;NSString *&gt; _Nonnull *)dependencyTaskNameList&#xa;+ (NSArray&lt;NSString *&gt; _Nonnull *)dependencyList &#xa;+ (void)setTaskName:(NSString _Nonnull *)taskName&#xa;+ (instancetype _Nonnull)alcTask" style="text;strokeColor=none;fillColor=none;align=left;verticalAlign=top;spacingLeft=4;spacingRight=4;overflow=hidden;rotatable=0;points=[[0,0.5],[1,0.5]];portConstraint=eastwest;fontSize=10;" vertex="1" parent="CemV3iuk9sfsoVy3u5H--1">
          <mxGeometry y="88" width="320" height="122" as="geometry" />
        </mxCell>
        <mxCell id="CemV3iuk9sfsoVy3u5H--6" value="UISkeleton" style="swimlane;fontStyle=1;align=center;verticalAlign=top;childLayout=stackLayout;horizontal=1;startSize=26;horizontalStack=0;resizeParent=1;resizeParentMax=0;resizeLast=0;collapsible=1;marginBottom=0;rounded=1;sketch=0;fontSize=12;fontColor=#5C5C5C;fillColor=#21C0A5;strokeColor=#21C0A5;" vertex="1" parent="WIyWlLk6GJQsqaUBKTNV-1">
          <mxGeometry x="-510" y="320" width="130" height="52" as="geometry" />
        </mxCell>
        <mxCell id="CemV3iuk9sfsoVy3u5H--7" value="+ (void)buildUISkeleton" style="text;strokeColor=none;fillColor=none;align=left;verticalAlign=top;spacingLeft=4;spacingRight=4;overflow=hidden;rotatable=0;points=[[0,0.5],[1,0.5]];portConstraint=eastwest;fontSize=10;" vertex="1" parent="CemV3iuk9sfsoVy3u5H--6">
          <mxGeometry y="26" width="130" height="26" as="geometry" />
        </mxCell>
        <mxCell id="CemV3iuk9sfsoVy3u5H--21" style="edgeStyle=orthogonalEdgeStyle;curved=0;rounded=1;sketch=0;orthogonalLoop=1;jettySize=auto;html=1;entryX=0.5;entryY=1;entryDx=0;entryDy=0;dashed=1;endArrow=open;endFill=0;strokeColor=#006658;fillColor=#21C0A5;fontSize=10;fontColor=#5C5C5C;" edge="1" parent="WIyWlLk6GJQsqaUBKTNV-1" source="CemV3iuk9sfsoVy3u5H--10" target="CemV3iuk9sfsoVy3u5H--17">
          <mxGeometry relative="1" as="geometry" />
        </mxCell>
        <mxCell id="CemV3iuk9sfsoVy3u5H--10" value="YDVBTabBarController" style="swimlane;fontStyle=1;align=center;verticalAlign=top;childLayout=stackLayout;horizontal=1;startSize=26;horizontalStack=0;resizeParent=1;resizeParentMax=0;resizeLast=0;collapsible=1;marginBottom=0;rounded=1;sketch=0;strokeColor=#21C0A5;fillColor=#21C0A5;fontSize=10;fontColor=#5C5C5C;" vertex="1" parent="WIyWlLk6GJQsqaUBKTNV-1">
          <mxGeometry x="-363.75" y="370" width="260" height="60" as="geometry" />
        </mxCell>
        <mxCell id="CemV3iuk9sfsoVy3u5H--11" value="+ (instancetype)initWithConfig:(YDTabBarModel *)config&#xa;+ (void)refreshWithConfig:(YDTabBarModel *)config" style="text;strokeColor=none;fillColor=none;align=left;verticalAlign=top;spacingLeft=4;spacingRight=4;overflow=hidden;rotatable=0;points=[[0,0.5],[1,0.5]];portConstraint=eastwest;fontSize=10;" vertex="1" parent="CemV3iuk9sfsoVy3u5H--10">
          <mxGeometry y="26" width="260" height="34" as="geometry" />
        </mxCell>
        <mxCell id="CemV3iuk9sfsoVy3u5H--17" value="YDTabBarModel" style="swimlane;fontStyle=1;align=center;verticalAlign=top;childLayout=stackLayout;horizontal=1;startSize=26;horizontalStack=0;resizeParent=1;resizeParentMax=0;resizeLast=0;collapsible=1;marginBottom=0;rounded=1;sketch=0;strokeColor=#21C0A5;fillColor=#21C0A5;fontSize=10;fontColor=#5C5C5C;" vertex="1" parent="WIyWlLk6GJQsqaUBKTNV-1">
          <mxGeometry x="-333.75" y="230" width="200" height="104" as="geometry" />
        </mxCell>
        <mxCell id="CemV3iuk9sfsoVy3u5H--18" value="+ NSString *data_ver&#xa;+ UIColor  *bgcolor&#xa;+ NSArray  *items" style="text;strokeColor=none;fillColor=none;align=left;verticalAlign=top;spacingLeft=4;spacingRight=4;overflow=hidden;rotatable=0;points=[[0,0.5],[1,0.5]];portConstraint=eastwest;fontSize=10;" vertex="1" parent="CemV3iuk9sfsoVy3u5H--17">
          <mxGeometry y="26" width="200" height="44" as="geometry" />
        </mxCell>
        <mxCell id="CemV3iuk9sfsoVy3u5H--19" value="" style="line;strokeWidth=1;fillColor=none;align=left;verticalAlign=middle;spacingTop=-1;spacingLeft=3;spacingRight=3;rotatable=0;labelPosition=right;points=[];portConstraint=eastwest;" vertex="1" parent="CemV3iuk9sfsoVy3u5H--17">
          <mxGeometry y="70" width="200" height="8" as="geometry" />
        </mxCell>
        <mxCell id="CemV3iuk9sfsoVy3u5H--20" value="+ (instancetype)modelObjectWithDictionary:(NSDictionary *)dict" style="text;strokeColor=none;fillColor=none;align=left;verticalAlign=top;spacingLeft=4;spacingRight=4;overflow=hidden;rotatable=0;points=[[0,0.5],[1,0.5]];portConstraint=eastwest;fontSize=10;" vertex="1" parent="CemV3iuk9sfsoVy3u5H--17">
          <mxGeometry y="78" width="200" height="26" as="geometry" />
        </mxCell>
        <mxCell id="CemV3iuk9sfsoVy3u5H--26" style="edgeStyle=orthogonalEdgeStyle;curved=0;rounded=1;sketch=0;orthogonalLoop=1;jettySize=auto;html=1;entryX=0;entryY=0.5;entryDx=0;entryDy=0;endArrow=block;endFill=0;strokeColor=#006658;fillColor=#21C0A5;fontSize=10;fontColor=#5C5C5C;" edge="1" parent="WIyWlLk6GJQsqaUBKTNV-1" source="CemV3iuk9sfsoVy3u5H--22" target="Zo8zre_AHFBqHG1fS06w-52">
          <mxGeometry relative="1" as="geometry">
            <Array as="points">
              <mxPoint x="5" y="-242" />
            </Array>
          </mxGeometry>
        </mxCell>
        <mxCell id="CemV3iuk9sfsoVy3u5H--22" value="VXWeexViewController" style="swimlane;fontStyle=1;align=center;verticalAlign=top;childLayout=stackLayout;horizontal=1;startSize=26;horizontalStack=0;resizeParent=1;resizeParentMax=0;resizeLast=0;collapsible=1;marginBottom=0;rounded=1;sketch=0;strokeColor=#21C0A5;fillColor=#21C0A5;fontSize=10;fontColor=#5C5C5C;" vertex="1" parent="WIyWlLk6GJQsqaUBKTNV-1">
          <mxGeometry x="-80" y="-270" width="150" height="60" as="geometry" />
        </mxCell>
        <mxCell id="CemV3iuk9sfsoVy3u5H--23" value="+ WXSDKInstance *instance&#xa;+ UIView *rootView" style="text;strokeColor=none;fillColor=none;align=left;verticalAlign=top;spacingLeft=4;spacingRight=4;overflow=hidden;rotatable=0;points=[[0,0.5],[1,0.5]];portConstraint=eastwest;fontSize=10;" vertex="1" parent="CemV3iuk9sfsoVy3u5H--22">
          <mxGeometry y="26" width="150" height="34" as="geometry" />
        </mxCell>
        <mxCell id="CemV3iuk9sfsoVy3u5H--31" style="edgeStyle=orthogonalEdgeStyle;curved=0;rounded=1;sketch=0;orthogonalLoop=1;jettySize=auto;html=1;entryX=-0.016;entryY=-0.094;entryDx=0;entryDy=0;entryPerimeter=0;endArrow=open;endFill=0;strokeColor=#006658;fillColor=#21C0A5;fontSize=10;fontColor=#5C5C5C;dashed=1;" edge="1" parent="WIyWlLk6GJQsqaUBKTNV-1" source="CemV3iuk9sfsoVy3u5H--27" target="CemV3iuk9sfsoVy3u5H--23">
          <mxGeometry relative="1" as="geometry" />
        </mxCell>
        <mxCell id="CemV3iuk9sfsoVy3u5H--27" value="WXSDKInstance" style="swimlane;fontStyle=1;align=center;verticalAlign=top;childLayout=stackLayout;horizontal=1;startSize=26;horizontalStack=0;resizeParent=1;resizeParentMax=0;resizeLast=0;collapsible=1;marginBottom=0;rounded=1;sketch=0;strokeColor=#21C0A5;fillColor=#21C0A5;fontSize=10;fontColor=#5C5C5C;" vertex="1" parent="WIyWlLk6GJQsqaUBKTNV-1">
          <mxGeometry x="-440" y="-567" width="290" height="640" as="geometry" />
        </mxCell>
        <mxCell id="CemV3iuk9sfsoVy3u5H--28" value="+ NSString* renderType&#xa;+ BOOL isCustomRenderType&#xa;+ BOOL isMainContainerStack&#xa;+ UIViewController *viewController&#xa;+ UIView *rootView&#xa;+ BOOL isRootViewFrozen&#xa;+ BOOL needValidate&#xa;+ BOOL useBackupJsThread&#xa;+ NSURL *scriptURL&#xa;+ WXSDKInstance *parentInstance&#xa;+ NSString *parentNodeRef&#xa;+ NSString *instanceId&#xa;+ BOOL needPrerender&#xa;+ NSDictionary* containerInfo&#xa;+ BOOL isRendered&#xa;+ WXComponentManager *componentManager&#xa;+ WXState state&#xa;+ NSString * bundleType&#xa;+ BOOL dataRender&#xa;+ BOOL wlasmRender&#xa;+ NSString *bizType&#xa;+ NSString *pageName&#xa;+ id pageObject&#xa;+ NSDictionary* continerInfo&#xa;+ CGRect frame&#xa;+ NSMutableDictionary *userInfo&#xa;+ CGFloat pixelScaleFactor&#xa;+ BOOL trackComponent" style="text;strokeColor=none;fillColor=none;align=left;verticalAlign=top;spacingLeft=4;spacingRight=4;overflow=hidden;rotatable=0;points=[[0,0.5],[1,0.5]];portConstraint=eastwest;fontSize=10;" vertex="1" parent="CemV3iuk9sfsoVy3u5H--27">
          <mxGeometry y="26" width="290" height="354" as="geometry" />
        </mxCell>
        <mxCell id="CemV3iuk9sfsoVy3u5H--29" value="" style="line;strokeWidth=1;fillColor=none;align=left;verticalAlign=middle;spacingTop=-1;spacingLeft=3;spacingRight=3;rotatable=0;labelPosition=right;points=[];portConstraint=eastwest;" vertex="1" parent="CemV3iuk9sfsoVy3u5H--27">
          <mxGeometry y="380" width="290" height="8" as="geometry" />
        </mxCell>
        <mxCell id="CemV3iuk9sfsoVy3u5H--30" value="+ (instancetype)init&#xa;+ (instancetype)initWithRenderType:(NSString*)renderType&#xa;+ (id&lt;WXBridgeProtocol&gt;)instanceJavaScriptContext&#xa;+ (void)renderWithURL:(NSURL *)url&#xa;+ (void)renderWithURL:(NSURL *)url options:(NSDictionary * _Nullable)options data:(id _Nullable)data&#xa;+ (void)renderView:(id)source options:(NSDictionary * _Nullable)options data:(id _Nullable)data&#xa;+ (void)reload:(BOOL)forcedReload&#xa;+ (void)reloadLayout&#xa;+ (void)refreshInstance:(id)data&#xa;+ (void)destroyInstance&#xa;+ (void)forceGarbageCollection&#xa;+ (id)moduleForClass:(Class)moduleClass&#xa;+ (WXComponent *)componentForRef:(NSString *)ref&#xa;+ (NSUInteger)numberOfComponents&#xa;+ (void)enumerateComponentsUsingBlock:(void (^)(WXComponent *component, BOOL *stop))block&#xa;+ (BOOL)checkModuleEventRegistered:(NSString*)event moduleClassName:(NSString*)moduleClassName&#xa;+ (void)fireModuleEvent:(Class)module eventName:(NSString *)eventName params:(NSDictionary* _Nullable)params&#xa;+ (void)fireGlobalEvent:(NSString *)eventName params:(NSDictionary * _Nullable)params&#xa;+ (NSURL *)completeURL:(NSString *)url&#xa;+ (NSString* _Nullable) bundleTemplate" style="text;strokeColor=none;fillColor=none;align=left;verticalAlign=top;spacingLeft=4;spacingRight=4;overflow=hidden;rotatable=0;points=[[0,0.5],[1,0.5]];portConstraint=eastwest;fontSize=10;" vertex="1" parent="CemV3iuk9sfsoVy3u5H--27">
          <mxGeometry y="388" width="290" height="252" as="geometry" />
        </mxCell>
      </root>
    </mxGraphModel>
  </diagram>
  <diagram id="AhaWF9ybrUBBR9a7m0_m" name="第 2 页">
    <mxGraphModel dx="1394" dy="744" grid="1" gridSize="10" guides="1" tooltips="1" connect="1" arrows="1" fold="1" page="1" pageScale="1" pageWidth="827" pageHeight="1169" math="0" shadow="0">
      <root>
        <mxCell id="hvd0vMWYTRJBrRM2Bk-8-0" />
        <mxCell id="hvd0vMWYTRJBrRM2Bk-8-1" parent="hvd0vMWYTRJBrRM2Bk-8-0" />
        <mxCell id="hvd0vMWYTRJBrRM2Bk-8-23" style="edgeStyle=orthogonalEdgeStyle;curved=0;rounded=1;sketch=0;orthogonalLoop=1;jettySize=auto;html=1;strokeColor=#006658;fillColor=#21C0A5;fontSize=12;fontColor=#5C5C5C;endArrow=block;endFill=0;dashed=1;" edge="1" parent="hvd0vMWYTRJBrRM2Bk-8-1" source="hvd0vMWYTRJBrRM2Bk-8-2">
          <mxGeometry relative="1" as="geometry">
            <mxPoint x="201" y="219" as="targetPoint" />
          </mxGeometry>
        </mxCell>
        <mxCell id="hvd0vMWYTRJBrRM2Bk-8-2" value="VBPluginTask" style="swimlane;fontStyle=1;align=center;verticalAlign=top;childLayout=stackLayout;horizontal=1;startSize=26;horizontalStack=0;resizeParent=1;resizeParentMax=0;resizeLast=0;collapsible=1;marginBottom=0;rounded=1;sketch=0;strokeColor=#006658;fillColor=#21C0A5;fontColor=#5C5C5C;" vertex="1" parent="hvd0vMWYTRJBrRM2Bk-8-1">
          <mxGeometry x="121" y="280" width="160" height="34" as="geometry" />
        </mxCell>
        <mxCell id="hvd0vMWYTRJBrRM2Bk-8-19" value="ALCTaskProtocol" style="swimlane;fontStyle=1;align=center;verticalAlign=top;childLayout=stackLayout;horizontal=1;startSize=26;horizontalStack=0;resizeParent=1;resizeParentMax=0;resizeLast=0;collapsible=1;marginBottom=0;rounded=1;sketch=0;strokeColor=#006658;fontSize=12;fontColor=#5C5C5C;fillColor=#00CC00;" vertex="1" parent="hvd0vMWYTRJBrRM2Bk-8-1">
          <mxGeometry x="40" y="10" width="320" height="210" as="geometry" />
        </mxCell>
        <mxCell id="hvd0vMWYTRJBrRM2Bk-8-20" value="+ AppInitializeTaskQueue taskQueue &#xa;+ ALCTimeRecorder *_Nullable taskCost &#xa;+ BOOL isALCTaskExecuted &#xa;+ NSDictionary *weakLaunchOptions " style="text;strokeColor=none;fillColor=none;align=left;verticalAlign=top;spacingLeft=4;spacingRight=4;overflow=hidden;rotatable=0;points=[[0,0.5],[1,0.5]];portConstraint=eastwest;fontSize=10;" vertex="1" parent="hvd0vMWYTRJBrRM2Bk-8-19">
          <mxGeometry y="26" width="320" height="54" as="geometry" />
        </mxCell>
        <mxCell id="hvd0vMWYTRJBrRM2Bk-8-21" value="" style="line;strokeWidth=1;fillColor=none;align=left;verticalAlign=middle;spacingTop=-1;spacingLeft=3;spacingRight=3;rotatable=0;labelPosition=right;points=[];portConstraint=eastwest;" vertex="1" parent="hvd0vMWYTRJBrRM2Bk-8-19">
          <mxGeometry y="80" width="320" height="8" as="geometry" />
        </mxCell>
        <mxCell id="hvd0vMWYTRJBrRM2Bk-8-22" value="+ (void)executeTask&#xa;+ (NSArray&lt;ALCTimeRecorder *&gt; *_Nonnull)extraInfo&#xa;+ (NSString _Nonnull *)taskName&#xa;+ (void)alcInitialized&#xa;+ (void)addDependency:(NSString _Nonnull *)dependencyTaskName&#xa;+ (void)addDependencyList:(NSArray&lt;NSString *&gt; _Nonnull *)dependencyTaskNameList&#xa;+ (NSArray&lt;NSString *&gt; _Nonnull *)dependencyList &#xa;+ (void)setTaskName:(NSString _Nonnull *)taskName&#xa;+ (instancetype _Nonnull)alcTask" style="text;strokeColor=none;fillColor=none;align=left;verticalAlign=top;spacingLeft=4;spacingRight=4;overflow=hidden;rotatable=0;points=[[0,0.5],[1,0.5]];portConstraint=eastwest;fontSize=10;" vertex="1" parent="hvd0vMWYTRJBrRM2Bk-8-19">
          <mxGeometry y="88" width="320" height="122" as="geometry" />
        </mxCell>
      </root>
    </mxGraphModel>
  </diagram>
</mxfile>
